<svg xmlns="http://www.w3.org/2000/svg" viewBox="0 0 500 500"><defs><style>.cls-1{fill:#fff;}.cls-2{fill:#3766ff;stroke:#3766ff;stroke-width:33.1px;}.cls-2,.cls-3{stroke-linecap:round;stroke-linejoin:round;}.cls-3{fill:none;stroke:#fff;stroke-width:33.57px;}</style></defs><title>iglü</title><g id="Dark"><path class="cls-1" d="M31.11,335.22v-90a.26.26,0,0,0-.26-.25h0a21.3,21.3,0,0,1-21.29-21.3v-3H46.28A12.12,12.12,0,0,1,58.4,232.84V335.22a.26.26,0,0,0,.26.26h21a.25.25,0,0,1,.25.25h0a24,24,0,0,1-24,24H9.81a.25.25,0,0,1-.25-.25v-2.73a21.29,21.29,0,0,1,21.29-21.29h0A.26.26,0,0,0,31.11,335.22ZM27.23,173.46A16.07,16.07,0,0,1,31.9,162a15.55,15.55,0,0,1,10.89-4.86,17.11,17.11,0,0,1,12.67,4.79,15.63,15.63,0,0,1,4.81,11.42,16.72,16.72,0,0,1-5.09,12.06A16,16,0,0,1,43.85,190a16.7,16.7,0,0,1-12.2-5.29A15.92,15.92,0,0,1,27.23,173.46Z"/><path class="cls-1" d="M259.44,221h0a24,24,0,0,1-24,24h-.72a.26.26,0,0,0-.26.25V348.55q0,21-2.15,31.1t-10.41,20.68q-8.26,10.56-24.79,17.74t-36.91,7.18a87.69,87.69,0,0,1-54.87-18.53l.74-.82c9-10.06,23.22-13,36-8.44A60.47,60.47,0,0,0,162.49,401a52.51,52.51,0,0,0,21.83-4.53q10.05-4.51,15-11a33.93,33.93,0,0,0,6.39-12.28q1.44-5.81,1.44-19.6V341.63a.24.24,0,0,0-.43-.17q-6.48,7.91-19.82,15a63.25,63.25,0,0,1-30.17,7.33q-29.86,0-48.69-20.69T89.23,292.24q0-33,20.76-53.36T158,218.56q27.3,0,48.69,21.54a.25.25,0,0,0,.43-.17h0a19.22,19.22,0,0,1,19.21-19.22h32.82A.26.26,0,0,1,259.44,221Zm-141.19,70.7q0,21.1,12.28,34.47t31.38,13.36a44.07,44.07,0,0,0,32.18-13.43q13.5-13.43,13.5-34.54,0-21.4-13.5-34.41t-31.32-13Q145,244.13,131.6,257T118.25,291.67Z"/><path class="cls-1" d="M283,335.22V184.48a.26.26,0,0,0-.26-.25h-.42a24,24,0,0,1-24-24h0a.26.26,0,0,1,.25-.26h39.62a12.13,12.13,0,0,1,12.12,12.13V335.22a.26.26,0,0,0,.26.26h0a21,21,0,0,1,21,21v3a.26.26,0,0,1-.26.25h-49a24,24,0,0,1-24-24h0a.25.25,0,0,1,.25-.25h24.19A.26.26,0,0,0,283,335.22Z"/><path class="cls-1" d="M490.44,359.21v.29a.25.25,0,0,1-.25.25H439.42a.26.26,0,0,1-.26-.25V344.31a.24.24,0,0,0-.4-.19Q415,362,393.2,362.05q-13.93,0-23.05-6.1A29.08,29.08,0,0,1,358,340.15q-3-9.7-3-31.24V245.24a.25.25,0,0,0-.25-.25h0a19.43,19.43,0,0,1-19.43-19.43V221a.26.26,0,0,1,.26-.26h34.59a12.12,12.12,0,0,1,12.12,12.12v72.63q0,15.38.87,20.68a13.86,13.86,0,0,0,5,8.76,15.91,15.91,0,0,0,10.49,3.45q18.91,0,40.41-18a.25.25,0,0,0,.09-.2V245.24a.25.25,0,0,0-.25-.25h-.29a24,24,0,0,1-24-24h0a.26.26,0,0,1,.26-.26h39.47a12.12,12.12,0,0,1,12.12,12.12V335.22a.26.26,0,0,0,.26.26h0A23.73,23.73,0,0,1,490.44,359.21ZM370.79,179.39a15.41,15.41,0,0,1,4.5-10.93,16,16,0,0,1,11.57-4.91,15.31,15.31,0,0,1,11.07,4.58,16.19,16.19,0,0,1,4.74,11.77,15.39,15.39,0,0,1-6,12.12,15.76,15.76,0,0,1-8.35,3c-4.94.48-8.46-.67-12-4C373.16,188,370.77,183.77,370.79,179.39Zm52,.1a15.79,15.79,0,0,1,4.52-11.13,15,15,0,0,1,11.42-4.81,16,16,0,0,1,15.94,15.83,16.15,16.15,0,0,1-5,11.73,15.91,15.91,0,0,1-26.87-11.62Z"/><path class="cls-2" d="M44.32,172.11c91-118.11,251.59-124.24,342.49,6.68h51.12S360.07,98.25,246.34,75C114.34,73,44.32,172.11,44.32,172.11Z"/><path class="cls-3" d="M44.32,172.11C147.53,34.85,347,47.87,437.93,178.79"/></g></svg>