<svg xmlns="http://www.w3.org/2000/svg" viewBox="0 0 500 500"><defs><style>.cls-1{fill:#3766ff;stroke:#3766ff;stroke-linejoin:round;stroke-width:33.1px;}.cls-1,.cls-2{stroke-linecap:round;}.cls-2{fill:none;stroke:#000;stroke-miterlimit:10;stroke-width:33.52px;}</style></defs><title>iglü</title><g id="Light_On_Black" data-name="Light On Black"><path d="M31.42,335.1V245.25a.26.26,0,0,0-.25-.26h0A21.26,21.26,0,0,1,9.91,223.73v-3H46.57a12.1,12.1,0,0,1,12.11,12.1V335.1a.26.26,0,0,0,.25.26h21a.26.26,0,0,1,.26.25h0a24,24,0,0,1-24,24h-46a.26.26,0,0,1-.25-.26v-2.72a21.26,21.26,0,0,1,21.26-21.26h0A.26.26,0,0,0,31.42,335.1ZM27.55,173.57a16,16,0,0,1,4.67-11.48,15.45,15.45,0,0,1,10.87-4.85A17,17,0,0,1,55.73,162a15.58,15.58,0,0,1,4.81,11.41,16.65,16.65,0,0,1-5.08,12,16,16,0,0,1-11.31,4.6A16.72,16.72,0,0,1,32,184.77,15.91,15.91,0,0,1,27.55,173.57Z"/><path d="M259.43,221h0a24,24,0,0,1-24,24h-.72a.26.26,0,0,0-.26.26V348.41q0,20.94-2.15,31t-10.39,20.66q-8.25,10.53-24.75,17.71T160.32,425a87.53,87.53,0,0,1-54.79-18.5l.74-.82c9-10.05,23.19-13,35.9-8.43a60.33,60.33,0,0,0,20.44,3.51,52.49,52.49,0,0,0,21.8-4.52q10.05-4.51,15-11A34.22,34.22,0,0,0,205.79,373q1.43-5.81,1.43-19.58V341.5a.24.24,0,0,0-.43-.17q-6.47,7.89-19.79,15a63.27,63.27,0,0,1-30.12,7.31q-29.83,0-48.62-20.65t-18.8-50.78q0-33,20.73-53.28t48-20.3q27.27,0,48.62,21.51a.25.25,0,0,0,.43-.16h0a19.19,19.19,0,0,1,19.19-19.19h32.77A.25.25,0,0,1,259.43,221Zm-141,70.6q0,21.08,12.26,34.42T162,339.37A44,44,0,0,0,194.17,326q13.49-13.41,13.48-34.49,0-21.37-13.48-34.36t-31.27-13q-17.79,0-31.13,12.84T118.44,291.61Z"/><path d="M283,335.1V184.58a.26.26,0,0,0-.25-.26h-.43a24,24,0,0,1-24-24h0a.26.26,0,0,1,.26-.26h39.56a12.1,12.1,0,0,1,12.1,12.11V335.1a.26.26,0,0,0,.26.26h0a21,21,0,0,1,21,21v3a.26.26,0,0,1-.25.26H282.29a24,24,0,0,1-24-24h0a.26.26,0,0,1,.26-.25h24.16A.26.26,0,0,0,283,335.1Z"/><path d="M490.09,359.06v.28a.26.26,0,0,1-.25.26H439.15a.26.26,0,0,1-.26-.26V344.17a.25.25,0,0,0-.4-.19q-23.75,17.91-45.5,17.91-13.9,0-23-6.09A29.12,29.12,0,0,1,357.85,340q-3-9.69-3-31.2V245.25a.26.26,0,0,0-.25-.26h0a19.39,19.39,0,0,1-19.4-19.4V221a.25.25,0,0,1,.25-.25H370a12.1,12.1,0,0,1,12.1,12.1v72.52q0,15.35.87,20.65a13.79,13.79,0,0,0,5,8.75,15.83,15.83,0,0,0,10.46,3.45q18.9,0,40.36-18a.25.25,0,0,0,.09-.2V245.25a.26.26,0,0,0-.25-.26h-.29a24,24,0,0,1-24-24h0a.25.25,0,0,1,.25-.25H454a12.1,12.1,0,0,1,12.1,12.1V335.1a.26.26,0,0,0,.25.26h0A23.7,23.7,0,0,1,490.09,359.06ZM370.62,179.49a15.31,15.31,0,0,1,4.49-10.91,16,16,0,0,1,11.55-4.91,15.32,15.32,0,0,1,11.06,4.58A16.13,16.13,0,0,1,402.45,180a15.37,15.37,0,0,1-6,12.1,13.41,13.41,0,0,1-7.65,2.9c-4.94.48-8.47-.67-12-4C373.65,188,370.6,183.87,370.62,179.49Zm51.92.1a15.77,15.77,0,0,1,4.52-11.12,15,15,0,0,1,11.4-4.8,15.21,15.21,0,0,1,11.26,4.73,15.43,15.43,0,0,1,4.66,11.08,16.15,16.15,0,0,1-5,11.71,15.88,15.88,0,0,1-26.83-11.6Z"/><path class="cls-1" d="M44.62,172.22c90.54-120.33,251.22-124,342,6.68h51.05S355,80,246.83,75C109.16,75,44.62,172.22,44.62,172.22Z"/><path class="cls-2" d="M44.62,172.22c103.06-137.06,302.27-124,393,6.68"/></g></svg>